HIERARCHY
ROOT Hips
{
 OFFSET 0.000000 0.000000 0.000000
 CHANNELS 6 Xposition Yposition Zposition Yrotation Xrotation Zrotation
 JOINT Chest
 {
  OFFSET 0.000000 9.585900 0.002600
  CHANNELS 3 Yrotation Xrotation Zrotation
  JOINT Chest2
  {
   OFFSET 0.000000 9.601200 -0.005300
   CHANNELS 3 Yrotation Xrotation Zrotation
   JOINT Chest3
   {
    OFFSET 0.000000 9.561800 0.000000
    CHANNELS 3 Yrotation Xrotation Zrotation
    JOINT Chest4
    {
     OFFSET 0.000000 9.552100 0.000000
     CHANNELS 3 Yrotation Xrotation Zrotation
     JOINT Neck
     {
      OFFSET 0.000000 14.453000 0.000000
      CHANNELS 3 Yrotation Xrotation Zrotation
      JOINT Head
      {
       OFFSET 0.000000 8.936500 -0.011300
       CHANNELS 3 Yrotation Xrotation Zrotation
       End Site
       {
        OFFSET 0.000000 17.073600 -0.006000
       }
      }
     }
     JOINT RightCollar
     {
      OFFSET -2.921100 9.558500 0.000000
      CHANNELS 3 Yrotation Xrotation Zrotation
      JOINT RightShoulder
      {
       OFFSET -13.519700 0.000000 0.000000
       CHANNELS 3 Yrotation Xrotation Zrotation
       JOINT RightElbow
       {
        OFFSET 0.000000 -29.696600 0.000000
        CHANNELS 3 Yrotation Xrotation Zrotation
        JOINT RightWrist
        {
         OFFSET 0.000000 -24.004700 0.000000
         CHANNELS 3 Yrotation Xrotation Zrotation
         End Site
         {
          OFFSET 0.000000 -17.728500 0.000000
         }
        }
       }
      }
     }
     JOINT LeftCollar
     {
      OFFSET 2.921100 9.558500 0.000000
      CHANNELS 3 Yrotation Xrotation Zrotation
      JOINT LeftShoulder
      {
       OFFSET 13.519700 0.000000 0.000000
       CHANNELS 3 Yrotation Xrotation Zrotation
       JOINT LeftElbow
       {
        OFFSET 0.000000 -29.696600 0.000000
        CHANNELS 3 Yrotation Xrotation Zrotation
        JOINT LeftWrist
        {
         OFFSET 0.000000 -24.004700 0.000000
         CHANNELS 3 Yrotation Xrotation Zrotation
         End Site
         {
          OFFSET 0.000000 -17.728500 0.000000
         }
        }
       }
      }
     }
    }
   }
  }
 }
 JOINT RightHip
 {
  OFFSET -7.771700 -0.012900 -0.001300
  CHANNELS 3 Yrotation Xrotation Zrotation
  JOINT RightKnee
  {
   OFFSET 0.000000 -40.869800 0.001200
   CHANNELS 3 Yrotation Xrotation Zrotation
   JOINT RightAnkle
   {
    OFFSET 0.000000 -39.717900 0.002100
    CHANNELS 3 Yrotation Xrotation Zrotation
    JOINT RightToe
    {
     OFFSET 0.000000 -4.965400 11.033500
     CHANNELS 3 Yrotation Xrotation Zrotation
     End Site
     {
      OFFSET 0.000000 -1.423100 5.872300
     }
    }
   }
  }
 }
 JOINT LeftHip
 {
  OFFSET 7.771700 -0.012900 -0.001300
  CHANNELS 3 Yrotation Xrotation Zrotation
  JOINT LeftKnee
  {
   OFFSET 0.000000 -40.869800 0.001200
   CHANNELS 3 Yrotation Xrotation Zrotation
   JOINT LeftAnkle
   {
    OFFSET 0.000000 -39.717900 0.002100
    CHANNELS 3 Yrotation Xrotation Zrotation
    JOINT LeftToe
    {
     OFFSET 0.000000 -4.965400 11.033500
     CHANNELS 3 Yrotation Xrotation Zrotation
     End Site
     {
      OFFSET 0.000000 -1.423100 5.872300
     }
    }
   }
  }
 }
}
MOTION
Frames: 13
Frame Time: 0.008333
-32.257283 51.931319 26.224723 178.582995 -23.838945 0.382259 -2.735443 14.501791 0.183389 -0.216452 1.351291 0.097088 -0.392623 2.207277 0.158850 -2.259564 13.025189 0.727077 -6.578990 16.983793 -1.477939 -6.793047 -7.675744 -0.054036 2.357469 15.078789 8.941727 30.248388 3.387834 -35.586932 93.028546 -78.522812 -119.630604 -1.024069 -2.633378 -3.876367 3.892826 15.972186 -12.059960 -32.071061 3.768192 27.642109 -80.955605 -66.504799 123.182158 14.286014 -2.011124 -3.429582 -10.459596 -58.849549 2.309028 -60.840632 83.420822 -68.931895 -4.288777 -9.119425 7.650957 0.293499 0.094549 0.105133 9.280888 -56.543025 -7.896138 48.516909 85.048251 55.293625 -1.302131 -13.587824 -0.458498 0.112343 0.515309 0.070422
-32.253854 51.923235 26.215488 178.600025 -23.801712 0.398062 -2.713648 14.569873 0.175285 -0.223995 1.332697 0.097104 -0.390839 2.211651 0.158847 -2.246550 13.038192 0.727388 -6.550144 16.936109 -1.465565 -6.735670 -7.729822 -0.057231 2.367540 15.009293 8.971322 30.550558 3.375677 -35.323947 94.845100 -79.909890 -121.377945 -0.969090 -2.296969 -5.384815 3.843137 15.913518 -12.072975 -32.305412 3.869703 27.617097 -82.025572 -67.649706 123.879015 14.240472 -0.667848 -2.254494 -10.493424 -58.916824 2.348165 -61.455301 83.403718 -69.586625 -4.305583 -9.196362 7.665570 0.308164 -0.009684 0.122428 9.329519 -56.575530 -7.937416 48.409460 85.066439 55.178796 -1.319457 -13.600367 -0.450848 0.132598 0.517738 0.074530
-32.254815 51.911753 26.213861 178.665084 -23.713091 0.422335 -2.746842 14.586347 0.139892 -0.231568 1.313953 0.095898 -0.389285 2.215711 0.158635 -2.235288 13.050200 0.726365 -6.548896 16.860314 -1.444594 -6.654355 -7.762779 -0.075700 2.484603 15.025395 9.028552 30.757858 3.272006 -35.104278 97.702661 -81.251572 -124.234764 -0.945434 -1.920243 -6.959972 3.791091 15.855913 -12.086046 -32.519885 3.994113 27.595371 -83.468418 -68.800303 124.981032 14.213141 0.687361 -1.097347 -10.582214 -59.066101 2.415501 -62.284070 83.363363 -70.490206 -4.376426 -9.147402 7.670174 0.390183 -0.200825 0.167381 9.389837 -56.658325 -8.043038 48.257889 85.075677 55.012174 -1.359385 -13.631239 -0.436638 0.161267 0.551686 0.085649
-32.251315 51.900441 26.211734 178.690931 -23.626623 0.438088 -2.751568 14.586343 0.123753 -0.230558 1.315895 0.095794 -0.387563 2.218840 0.158440 -2.223549 13.059782 0.725735 -6.546739 16.786230 -1.425496 -6.603040 -7.795500 -0.083553 2.545892 14.996744 9.065357 31.005323 3.206970 -34.842890 101.695904 -82.481908 -128.271143 -1.019863 -1.554494 -8.494606 3.741190 15.806942 -12.086451 -32.706440 4.125178 27.569438 -85.378097 -69.964750 126.564711 14.234815 2.039287 0.011293 -10.635440 -59.184703 2.470426 -62.825364 83.330204 -71.075162 -4.379123 -9.175670 7.687402 0.400253 -0.303010 0.178201 9.448726 -56.741660 -8.103705 48.118049 85.085129 54.858479 -1.378817 -13.642474 -0.417873 0.167450 0.565473 0.087018
-32.252498 51.891994 26.202875 178.701958 -23.581734 0.490172 -2.755330 14.626722 0.072845 -0.229295 1.317275 0.095862 -0.385416 2.221016 0.158536 -2.209584 13.067001 0.727280 -6.521674 16.740327 -1.415794 -6.584249 -7.849525 -0.073461 2.547722 14.925012 9.081093 31.288604 3.178118 -34.539993 106.963263 -83.565039 -133.604997 -1.204190 -1.258190 -9.878526 3.680542 15.800849 -12.060361 -32.847373 4.213212 27.537480 -87.868710 -71.133708 128.715783 14.336500 3.340235 1.071108 -10.613825 -59.261374 2.459682 -63.411245 83.280123 -71.721413 -4.376244 -9.215373 7.724162 0.408668 -0.379469 0.184817 9.550221 -56.775968 -8.199634 48.162621 85.081589 54.865991 -1.389008 -13.639127 -0.380562 0.135746 0.557619 0.083662
-32.246104 51.879734 26.202732 178.696975 -23.479062 0.502690 -2.733475 14.612450 0.071819 -0.227981 1.318173 0.096070 -0.383140 2.222519 0.158915 -2.195264 13.072288 0.730473 -6.499476 16.694645 -1.407816 -6.567564 -7.901109 -0.064127 2.548840 14.852034 9.091558 31.559115 3.144364 -34.220793 113.864318 -84.488175 -140.600886 -1.437305 -1.068739 -11.011517 3.633745 15.766929 -12.024011 -32.946487 4.316985 27.473546 -90.974609 -72.309824 131.450082 14.517814 4.489346 2.063507 -10.669220 -59.389362 2.549496 -63.753004 83.259468 -72.096519 -4.405350 -9.214929 7.723697 0.426644 -0.459273 0.197995 9.603650 -56.878661 -8.243258 48.159679 85.084066 54.856019 -1.376349 -13.648626 -0.374100 0.116295 0.567886 0.079036
-32.241554 51.868242 26.200992 178.707957 -23.384719 0.519580 -2.730257 14.607043 0.061383 -0.226832 1.318548 0.096274 -0.381162 2.223184 0.159337 -2.189891 13.052673 0.732633 -6.472865 16.672936 -1.404522 -6.551173 -7.950422 -0.055723 2.569212 14.824731 9.104302 31.801180 3.088217 -33.905614 122.905294 -85.206950 -149.781175 -1.643811 -0.985089 -11.832423 3.612832 15.745586 -11.983639 -33.020418 4.414728 27.392800 -94.670798 -73.498745 134.753394 14.760171 5.417771 2.924201 -10.695238 -59.501478 2.583894 -64.080138 83.229335 -72.450707 -4.380771 -9.242636 7.741776 0.413114 -0.504105 0.192450 9.679018 -56.971513 -8.300904 48.135088 85.087585 54.814935 -1.404609 -13.655309 -0.345704 0.125892 0.575771 0.070841
-32.236031 51.856877 26.199357 178.703652 -23.287561 0.535233 -2.713633 14.598951 0.059635 -0.225814 1.318321 0.096485 -0.386596 2.179101 0.157934 -2.191350 13.030895 0.733030 -6.436803 16.697913 -1.409351 -6.533556 -7.996157 -0.047695 2.614582 14.907763 9.116764 31.993465 2.965374 -33.621471 133.874198 -85.649146 -160.913120 -1.793105 -1.000003 -12.356014 3.622916 15.775277 -11.937381 -33.084744 4.487106 27.303622 -99.084623 -74.664776 138.770470 15.046344 6.144142 3.603226 -10.719198 -59.615842 2.632753 -64.349916 83.199956 -72.745026 -4.352023 -9.249460 7.736806 0.402089 -0.549176 0.204204 9.757812 -57.066506 -8.346986 48.133799 85.088602 54.797577 -1.428081 -13.665788 -0.317015 0.124187 0.585828 0.064806
-32.229706 51.846018 26.197159 178.693737 -23.191933 0.546104 -2.694558 14.590533 0.062131 -0.224864 1.317560 0.096737 -0.380527 2.200313 0.159675 -2.180119 13.012277 0.739264 -6.417863 16.657369 -1.402197 -6.530562 -8.040921 -0.039111 2.605705 14.871583 9.120538 32.136172 2.869128 -33.315417 145.101335 -85.792696 -172.280827 -1.871971 -1.107862 -12.655797 3.625636 15.743948 -11.893985 -33.140651 4.530562 27.209156 -104.417673 -75.754417 143.701835 15.351765 6.701982 4.077495 -10.781098 -59.745296 2.756112 -64.851329 83.158938 -73.299672 -4.384625 -9.195510 7.742800 0.446432 -0.636628 0.222937 9.829457 -57.162644 -8.378017 48.106065 85.100479 54.754728 -1.444478 -13.675931 -0.295636 0.121261 0.593124 0.065355
-32.221650 51.837146 26.191077 178.687613 -23.119726 0.542849 -2.680565 14.582924 0.073173 -0.224191 1.316795 0.096924 -0.376206 2.239543 0.161498 -2.170020 12.991922 0.744004 -6.396330 16.620510 -1.395072 -6.553476 -8.082734 -0.023140 2.582072 14.892542 9.136979 32.217578 2.712882 -33.059419 154.443440 -85.699460 178.293442 -1.873199 -1.271855 -12.828211 3.642156 15.723578 -11.850349 -33.180016 4.545532 27.109632 -110.767592 -76.721269 149.644742 15.655812 7.109283 4.344571 -10.844991 -59.836734 2.862490 -65.222866 83.133803 -73.709986 -4.384844 -9.171986 7.755591 0.449617 -0.695323 0.222647 9.898495 -57.236036 -8.386683 47.954049 85.130166 54.600027 -1.482863 -13.688361 -0.279507 0.148962 0.598082 0.079133
-32.216125 51.826681 26.189582 178.689735 -23.015671 0.547819 -2.680120 14.499921 0.072495 -0.223974 1.316520 0.096985 -0.375412 2.295989 0.164354 -2.157581 12.991826 0.744073 -6.358104 16.606874 -1.386926 -6.546614 -8.140054 -0.012361 2.552394 14.929435 9.156949 32.231461 2.525582 -32.828900 160.908980 -85.476023 171.815211 -1.801919 -1.451972 -12.974033 3.663726 15.711307 -11.808165 -33.193591 4.539134 27.009746 -118.129382 -77.520357 156.591768 15.959155 7.375066 4.456017 -10.885599 -59.952917 2.919963 -65.450609 83.123638 -73.953476 -4.372509 -9.197577 7.755092 0.434044 -0.696750 0.223539 9.943027 -57.339954 -8.428935 47.946059 85.133745 54.590475 -1.471853 -13.694543 -0.277342 0.145785 0.605293 0.074913
-32.210613 51.816852 26.187446 178.688892 -22.914267 0.551034 -2.679028 14.537883 0.079969 -0.221089 1.256893 0.095444 -0.379455 2.288946 0.164338 -2.156870 13.050617 0.753409 -6.318482 16.523807 -1.382863 -6.471196 -8.174656 -0.027261 2.544076 14.847002 9.147592 32.177635 2.371531 -32.571675 164.754790 -85.207694 168.014331 -1.671904 -1.626740 -13.170167 3.693587 15.649677 -11.788083 -33.175411 4.517884 26.915321 -126.397577 -78.093291 164.423427 16.263131 7.512324 4.487136 -10.927395 -60.064716 2.981132 -65.659315 83.121901 -74.177201 -4.367973 -9.231471 7.755762 0.419923 -0.679497 0.227435 10.012758 -57.440471 -8.467143 47.868382 85.149269 54.504640 -1.482263 -13.708271 -0.253667 0.138629 0.616283 0.073865
-32.207287 51.809447 26.180318 178.701441 -22.843839 0.559733 -2.699034 14.560902 0.070447 -0.222815 1.292163 0.097528 -0.377875 2.227101 0.162882 -2.161671 13.038428 0.757779 -6.280863 16.505858 -1.383866 -6.431731 -8.200405 -0.035045 2.519388 14.917490 9.145115 32.143509 2.161407 -32.378009 166.626240 -84.935213 166.208801 -1.503807 -1.776710 -13.448278 3.726320 15.668927 -11.765117 -33.124962 4.483514 26.827270 -135.250018 -78.368510 172.817964 16.549550 7.558855 4.492304 -10.968073 -60.150811 3.032232 -65.942162 83.145888 -74.490763 -4.412801 -9.264565 7.766194 0.428751 -0.685944 0.227459 10.073635 -57.507934 -8.506606 47.869783 85.157437 54.482121 -1.496615 -13.716562 -0.211893 0.118760 0.618701 0.065355
